<?xml version="1.0" encoding="utf-8"?>
<!-- Generator: Adobe Illustrator 17.0.0, SVG Export Plug-In . SVG Version: 6.00 Build 0)  -->
<!DOCTYPE svg PUBLIC "-//W3C//DTD SVG 1.1//EN" "http://www.w3.org/Graphics/SVG/1.1/DTD/svg11.dtd">
<svg version="1.1" id="Layer_1" xmlns="http://www.w3.org/2000/svg" xmlns:xlink="http://www.w3.org/1999/xlink" x="0px" y="0px"
	 width="512px" height="512px" viewBox="0 0 512 512" enable-background="new 0 0 512 512" xml:space="preserve">
<path d="M316.752,255.999L496.979,75.772c16.777-16.775,16.777-43.974,0-60.751c-16.775-16.777-43.974-16.777-60.751,0
	L256.001,195.248L75.772,15.021c-16.775-16.777-43.976-16.777-60.751,0c-16.777,16.777-16.777,43.976,0,60.751L195.25,255.999
	L15.021,436.228c-16.777,16.777-16.777,43.976,0,60.751c16.775,16.777,43.976,16.777,60.751,0L256.001,316.75l180.227,180.229
	c16.777,16.777,43.976,16.777,60.751,0c16.777-16.775,16.777-43.974,0-60.751L316.752,255.999z"/>
</svg>
